<?xml version="1.0" encoding="utf-8"?>
<!-- Generator: Adobe Illustrator 27.1.1, SVG Export Plug-In . SVG Version: 6.00 Build 0)  -->
<svg version="1.1" id="Layer_2" xmlns="http://www.w3.org/2000/svg" xmlns:xlink="http://www.w3.org/1999/xlink" x="0px" y="0px"
	 viewBox="0 0 191.2 11.1" style="enable-background:new 0 0 191.2 11.1;" xml:space="preserve">
<style type="text/css">
	.st0{fill-rule:evenodd;clip-rule:evenodd;fill:#0C121C;}
</style>
<g>
	<path class="st0" d="M64.9,4.8V7l6.3,0v0.6c0,0.6-0.4,1-1,1h-4.1h0h-4c-0.5,0-1-0.5-1-1v-4c0-0.6,0.4-1,1-1h4h0h4.1
		c0.5,0,1,0.5,1,1v0.1v0h3l0,0L74.1,3c-0.1-1.6-1.4-2.9-3-2.9l-4.9,0l-4.9,0c-1.7,0-2.9,1.3-3,2.9c-0.2,1.8-0.1,3.4,0,5.2
		c0.1,1.6,1.4,2.9,3,2.9l4.9,0l4.9,0c1.6,0,2.9-1.3,3-2.9c0.1-1.1,0.1-2.2,0.1-3.4H64.9z"/>
	<polygon class="st0" points="160.2,8.4 160.2,6.7 169.9,6.7 169.9,4.4 160.2,4.4 160.2,2.7 171.4,2.7 171.4,0.2 157.2,0.2 
		157.2,10.9 171.4,10.9 171.4,8.4 	"/>
	<polygon class="st0" points="146.1,8.4 140.4,0.2 136.6,0.2 144.3,10.9 146.1,10.9 146.1,10.9 148,10.9 155.6,0.2 151.9,0.2 	"/>
	<polygon class="st0" points="52.2,7.4 43.3,0.2 38.5,0.2 38.5,10.9 41.6,10.9 41.6,3 51.5,10.9 55.4,10.9 55.4,0.2 52.2,0.2 	"/>
	<polygon class="st0" points="91.4,2.7 91.4,0.2 77.2,0.2 77.2,10.9 91.4,10.9 91.4,8.4 80.2,8.4 80.2,6.7 89.9,6.7 89.9,4.4 
		80.2,4.4 80.2,2.7 	"/>
	<path class="st0" d="M25.6,0.2l-7.6,10.7l3.8,0l1.5-2.2l8.4,0l1.5,2.2l3.8,0L29.3,0.2C28,0.2,26.8,0.2,25.6,0.2z M27.4,6.5
		L27.4,6.5l-2.6,0l2.6-3.8l2.6,3.8H27.4z"/>
	<path class="st0" d="M16,3.7c0-1.9-1.6-3.5-3.5-3.5H0v10.7l3.1,0V7.2h6.5l3.2,3.7h4.1L13.5,7C14.9,6.6,16,5.3,16,3.7z M11.8,4.7
		L11.8,4.7l-8.7,0V2.7h8.6h0.1c0.5,0,0.9,0.4,0.9,1C12.7,4.2,12.3,4.7,11.8,4.7z"/>
	<path class="st0" d="M117,3.7c0-1.9-1.6-3.5-3.5-3.5H101v10.7l3.1,0V7.2h6.5l3.2,3.7h4.1L114.5,7C115.9,6.6,117,5.3,117,3.7z
		 M112.8,4.7L112.8,4.7l-8.7,0V2.7h8.6h0.1c0.5,0,0.9,0.4,0.9,1C113.7,4.2,113.3,4.7,112.8,4.7z"/>
	<path class="st0" d="M187.9,7c1.4-0.4,2.5-1.8,2.5-3.3c0-1.9-1.6-3.5-3.5-3.5h-12.5v10.7l3.1,0V7.2h6.5l3.2,3.7h4.1L187.9,7z
		 M186.2,4.7L186.2,4.7l-8.7,0V2.7h8.6h0.1c0.5,0,0.9,0.4,0.9,1C187.1,4.2,186.7,4.7,186.2,4.7z"/>
	<path class="st0" d="M135.7,3c-0.1-1.6-1.3-2.9-3-2.9l-4.9,0l-4.9,0c-1.6,0-2.9,1.3-3,2.9l-0.1,1.1l0,1.5l0,1.1l0.1,1.5
		c0.1,1.6,1.3,2.9,3,2.9l4.9,0l4.9,0c1.6,0,2.9-1.3,3-2.9l0.1-1.1l0-1.5l0-1.1L135.7,3z M132.8,7.6c0,0.6-0.4,1-1,1h-4.1h0h-4
		c-0.5,0-1-0.5-1-1v-4c0-0.6,0.4-1,1-1h4h0h4.1c0.5,0,1,0.5,1,1V7.6z"/>
</g>
</svg>
